PathFileType	4	(X/Y/Z)	 s06c0303.trc
DataRate	CameraRate	NumFrames	NumMarkers	Units	OrigDataRate	OrigDataStartFrame	OrigNumFrames
200	200	6	48	mm	200	1751	2000
Frame#	Time	racr			lacr			c7			jug			rlel			rdr			llel			ldr			s2			lic			ric			lasi			rasi			rpsi			lpsi			rgt			lgt			rth1			rth2			rth3			rth4			rlfc			rmfc			rsh1			rsh2			rsh3			rsh4			rlmal			rcal			rtoe			rmt5			lth1			lth2			lth4			lth3			llfc			lmfc			llmal			lcal			lmt5			lsh1			lsh2			lsh3			lsh4			ltoe			SBIKE			LBIKE			RBIKE			
		X1	Y1	Z1	X2	Y2	Z2	X3	Y3	Z3	X4	Y4	Z4	X5	Y5	Z5	X6	Y6	Z6	X7	Y7	Z7	X8	Y8	Z8	X9	Y9	Z9	X10	Y10	Z10	X11	Y11	Z11	X12	Y12	Z12	X13	Y13	Z13	X14	Y14	Z14	X15	Y15	Z15	X16	Y16	Z16	X17	Y17	Z17	X18	Y18	Z18	X19	Y19	Z19	X20	Y20	Z20	X21	Y21	Z21	X22	Y22	Z22	X23	Y23	Z23	X24	Y24	Z24	X25	Y25	Z25	X26	Y26	Z26	X27	Y27	Z27	X28	Y28	Z28	X29	Y29	Z29	X30	Y30	Z30	X31	Y31	Z31	X32	Y32	Z32	X33	Y33	Z33	X34	Y34	Z34	X35	Y35	Z35	X36	Y36	Z36	X37	Y37	Z37	X38	Y38	Z38	X39	Y39	Z39	X40	Y40	Z40	X41	Y41	Z41	X42	Y42	Z42	X43	Y43	Z43	X44	Y44	Z44	X45	Y45	Z45	X46	Y46	Z46	X47	Y47	Z47	X48	Y48	Z48	
1751	8.7550	709.037126	1332.782337	-78.611585	724.877972	1311.117533	-393.792698	721.894920	1398.542497	-242.555147	685.736900	1240.205628	-231.172380	611.838204	1108.202981	52.217977	719.098626	917.264251	-39.158884	585.429010	1093.362996	-493.154204	706.568394	921.035617	-391.191654	156.081638	1283.446609	-204.920789	301.318489	1199.802950	-378.457229	304.795930	1197.271658	-46.531069	300.093539	1140.398073	-338.851173	315.541650	1139.947144	-82.517653	197.599553	1300.391214	-170.487914	192.139874	1302.664000	-229.935646	238.876129	1125.924653	-8.999385	255.712084	1157.302331	-400.766201	286.957962	994.365642	2.121668	332.931785	915.681524	-4.178599	331.526776	828.935776	-13.423430	365.626521	927.493128	-20.564866	325.499090	723.007153	-32.601477	309.871676	706.179398	-145.377360	244.706880	631.545916	-9.577086	203.318308	558.159261	-29.577787	129.309719	509.899721	-35.080681	221.145371	546.055778	-64.851551	68.022534	458.779373	-43.317437	15.310691	491.597161	-93.044266	135.574516	241.868258	-88.542166	70.028435	317.803415	-20.739340	288.575079	1043.099879	-416.853707	353.412007	985.476970	-411.226773	382.722187	1004.660593	-397.731501	380.825153	900.075673	-407.680930	407.968345	781.612555	-385.756374	421.687029	763.407354	-272.260339	291.078915	421.619741	-372.845038	217.068066	404.761516	-324.429253	399.351139	330.090783	-398.115918	372.343495	677.382400	-407.511962	367.811375	592.032637	-389.649385	320.378134	517.015057	-385.196540	395.710637	587.482510	-362.126533	485.248438	319.649371	-339.601921	-159.720193	855.966336	-206.175122	-55.436383	84.619125	-406.587363	-53.405386	80.594373	-9.187753	
1752	8.7600	709.026384	1333.882088	-77.288900	726.183086	1312.560615	-391.924974	722.174129	1399.641519	-240.970875	685.951576	1241.124267	-229.677728	612.737657	1108.811931	52.664777	719.043417	917.212071	-38.948256	586.913916	1094.756759	-492.066630	706.785441	921.023882	-390.907247	157.008028	1283.971077	-205.668489	302.380428	1199.191009	-378.577660	304.598565	1198.896919	-46.567433	300.483129	1138.729912	-339.490794	315.890035	1141.560055	-82.797141	197.875871	1301.224182	-170.966515	192.960357	1302.741605	-230.720443	240.580851	1128.537494	-8.419595	254.688478	1154.440831	-401.303219	290.152932	997.956045	2.474813	336.897475	920.101262	-4.327016	337.212166	833.544864	-12.820315	369.586306	932.421141	-20.281156	332.121310	727.199549	-32.022571	316.101385	710.740696	-144.960712	249.381895	637.147692	-9.242595	206.459620	564.788611	-29.455663	131.265553	518.345017	-35.247642	223.491387	552.726331	-64.515486	68.740573	468.998367	-43.498020	16.221685	501.970023	-92.892678	136.141232	252.132680	-88.447068	70.653740	328.141958	-20.644011	285.873977	1038.884509	-416.686940	349.389975	979.796066	-410.862034	379.192780	998.455671	-397.916846	374.757965	893.840084	-406.440847	399.505390	774.371952	-385.137094	413.893197	755.987968	-271.885503	291.115304	412.171973	-372.515944	217.434501	396.420081	-324.480281	399.053193	319.602930	-397.983548	365.659202	669.189721	-406.584962	363.046234	584.069595	-389.456406	317.375668	507.969538	-384.915712	391.631698	580.334213	-363.345716	485.009489	308.367041	-339.686848	-159.721326	855.955302	-206.143172	-55.356014	84.570711	-406.545657	-53.409442	80.564938	-9.177926	
1753	8.7650	708.889146	1335.142239	-75.951532	727.396024	1314.014594	-390.162247	722.450364	1400.708294	-239.363446	686.267136	1241.881727	-228.097614	613.694426	1109.513114	53.033530	718.867813	917.149520	-38.732937	588.389177	1096.116233	-490.982812	706.970889	921.009899	-390.551333	157.547557	1284.374889	-206.437256	303.425215	1198.311833	-378.883074	305.125692	1200.171847	-46.409143	300.808859	1136.579261	-339.764385	316.208487	1142.992728	-83.193158	198.308184	1301.918048	-171.744400	192.694615	1303.082618	-230.022567	242.280239	1130.892164	-7.950299	253.666358	1151.373783	-401.762150	293.193798	1001.699743	2.571230	340.886693	924.257678	-4.141832	343.222344	837.709224	-12.000060	373.627467	937.236502	-19.993631	339.088688	731.179558	-31.546617	323.343435	714.789388	-143.575213	254.461241	642.698125	-8.771306	209.900578	571.480549	-29.405572	133.606564	526.662127	-35.513147	226.605301	559.182460	-64.624743	70.048852	479.309801	-43.665543	17.379987	512.119272	-93.406656	137.321138	262.437453	-88.404269	71.888450	338.527450	-20.609232	283.251461	1034.409416	-416.651827	345.233729	973.895880	-410.617978	375.637974	991.932182	-398.109756	368.505454	887.387850	-405.233092	391.195863	767.027433	-384.565600	405.906893	748.313113	-271.616150	290.861003	402.982427	-372.037015	218.097360	387.452127	-323.376021	398.149343	309.218323	-397.897928	358.709901	661.333581	-406.655399	357.995292	575.870122	-388.951867	314.170562	499.095024	-384.752528	387.063286	571.731954	-361.899963	484.180734	297.023878	-339.906413	-159.781904	855.887937	-206.200506	-55.398690	84.600713	-406.531803	-53.437537	80.554285	-9.181496	
1754	8.7700	708.656986	1336.717329	-74.726697	728.571421	1315.446112	-388.503403	722.775560	1401.853903	-237.827225	686.386259	1242.859100	-226.623398	614.589007	1110.488701	53.352378	718.646881	916.942800	-38.439479	589.881780	1097.379681	-489.913920	707.244783	920.692133	-389.811485	158.119343	1284.197848	-207.253847	304.463545	1197.117231	-379.146416	305.371931	1201.374128	-46.379629	301.410522	1134.047054	-340.171869	316.626452	1144.252038	-83.361022	198.134109	1302.668462	-172.245025	194.886639	1302.645216	-233.216218	244.088464	1132.999134	-7.526997	252.820721	1148.243336	-402.290905	295.933486	1004.784651	2.670762	344.710791	928.576253	-3.815772	348.863610	841.887018	-11.235408	377.512334	941.976189	-19.809631	346.271514	735.261782	-31.152521	329.892173	719.012061	-143.163029	260.363757	648.171667	-8.244044	213.733188	578.180953	-29.406282	136.449882	535.137940	-35.661140	230.170246	565.647855	-64.650800	71.846711	489.635215	-43.935515	19.082835	522.286214	-93.745031	139.138217	272.765373	-88.409044	73.651863	348.820605	-20.647960	280.683169	1029.697541	-416.604994	341.098514	967.592063	-410.341063	371.983045	985.052474	-398.324412	362.120956	880.571693	-403.894795	383.374854	759.821443	-384.438413	398.027208	740.501829	-271.262613	290.230283	394.085773	-371.641444	217.864066	379.468389	-322.735796	396.725061	298.786898	-397.735150	352.026483	653.396378	-406.479190	353.070400	567.880412	-388.742790	310.914581	490.246351	-384.681198	382.463522	564.300654	-362.038814	482.833565	285.528116	-340.155389	-159.713702	855.905395	-206.179426	-55.332216	84.749975	-406.655605	-53.455234	80.643384	-9.223804	
1755	8.7750	708.308777	1338.382485	-73.512466	729.635103	1316.784609	-386.909781	723.092298	1402.864579	-236.224877	686.542065	1243.693231	-224.885159	615.392790	1111.425176	53.740148	718.517979	916.918440	-38.203374	591.401262	1098.548090	-488.867457	707.559926	920.720296	-389.356982	158.535119	1283.334570	-207.927216	305.572599	1195.647106	-379.377780	304.141496	1201.968365	-48.371724	302.181230	1131.634149	-340.611949	317.028329	1145.359359	-83.410847	198.278098	1302.591453	-173.101860	195.460675	1301.591229	-233.883149	245.769557	1134.835201	-7.187732	252.068566	1144.639525	-402.541101	299.048039	1007.808002	2.663162	348.494511	932.383952	-3.860634	354.628765	845.890055	-10.277763	381.280235	946.556604	-19.737365	353.814097	739.329596	-30.401143	337.469400	722.626682	-142.063223	266.157764	653.844436	-7.755088	218.017746	584.999476	-29.320816	139.955140	543.515932	-35.848721	234.305418	572.363806	-64.518294	74.356674	499.635103	-44.171464	22.268995	532.655302	-93.758069	141.530726	282.882120	-88.395502	76.103714	359.021237	-20.707602	278.174505	1024.798944	-416.646368	336.938263	961.073196	-410.068729	368.342873	977.774015	-398.436174	355.567934	873.590679	-402.998363	375.433466	752.323609	-383.949423	390.384014	733.139172	-270.502751	289.188314	385.286142	-371.306288	217.275246	371.667618	-322.178531	394.802114	288.571415	-397.665187	345.504829	645.551178	-406.113086	348.171347	560.089634	-388.524624	307.530376	481.642160	-384.566194	377.792064	556.846058	-362.022811	480.924770	274.024685	-340.345214	-159.752172	855.936542	-205.941722	-55.351782	84.741048	-406.639345	-53.671395	80.654095	-8.957010	
1756	8.7800	707.894145	1340.244024	-72.113274	730.653967	1318.059199	-385.395937	723.326855	1404.053790	-234.768175	686.789451	1244.427986	-223.280269	616.077340	1112.563423	54.093729	718.462263	917.070069	-38.030021	592.939611	1099.666339	-487.858863	707.693024	920.625691	-389.327349	158.952920	1282.275592	-208.768091	306.602925	1193.928835	-379.698427	304.351101	1202.851233	-48.377684	303.313203	1129.054934	-341.103827	317.343067	1146.215223	-83.587439	198.362831	1302.320556	-174.083704	196.040744	1300.345074	-234.703430	247.327847	1136.500423	-7.022385	251.402023	1140.844232	-402.671801	301.841803	1010.414719	2.791835	352.769315	936.305872	-3.565985	360.415351	849.770476	-9.351780	385.000672	950.863632	-19.652198	361.680908	743.648807	-29.735874	347.423566	726.128804	-140.008470	272.252145	659.629916	-7.229998	222.904118	591.840762	-29.114875	143.996918	551.832606	-35.953084	239.005637	578.854773	-64.299398	77.513637	509.591555	-44.336978	24.625139	542.491784	-94.111524	144.580668	292.831202	-88.435430	79.129469	368.944884	-20.730890	275.746467	1019.576211	-416.677169	332.652556	954.265888	-409.857815	364.560263	970.253887	-398.623436	348.735488	866.232638	-402.761158	367.888749	745.204762	-383.800327	381.914679	725.797584	-269.998986	287.597207	376.867068	-371.198171	216.365663	364.228430	-321.837346	392.578609	278.477439	-397.541194	339.119627	637.716042	-405.761564	343.328916	552.294747	-388.233918	304.108050	473.191303	-384.444998	372.840040	550.121949	-362.348323	478.445101	262.600270	-340.392995	-159.756326	855.964593	-206.010417	-55.524696	84.647431	-406.562961	-53.665695	80.685886	-8.964122	
